<?xml version="1.0" encoding="utf-8"?>
<!-- Generator: Adobe Illustrator 24.3.0, SVG Export Plug-In . SVG Version: 6.00 Build 0)  -->
<svg version="1.1" id="Layer_1" xmlns="http://www.w3.org/2000/svg" xmlns:xlink="http://www.w3.org/1999/xlink" x="0px" y="0px"
	 viewBox="0 0 18 24" enable-background="new 0 0 18 24" xml:space="preserve">
<path id="water" fill="#00AEEF" d="M9,24c4.9707,0,9-3.4932,9-7.9385C18,8.123,10.6738,6.9854,9,0C7.3271,6.9854,0,8.123,0,16.0615
	C0,20.5068,4.0313,24,9,24z M12.168,8.1719c2.164,2.2422,4.0312,4.1797,4.0312,7.8896c0,2.7061-1.9043,4.9512-4.6406,5.8272
	c1.498-1.1104,2.5352-2.834,2.7422-4.8799c0.4082-4.0479-1.1231-6.3203-2.8985-8.9512c-0.5312-0.79-1.082-1.625-1.6015-2.5273
	C10.5615,6.5039,11.3848,7.3613,12.168,8.1719z"/>
</svg>
