<?xml version="1.0" encoding="UTF-8" standalone="no"?> <svg height="512pt" viewBox="-90 0 512 512" width="512pt" xmlns="http://www.w3.org/2000/svg"><path d="m322 30v452c0 11.046875-6.054688 20-13.523438 20h-183.945312c-7.46875 0-13.523438-8.953125-13.523438-20v-452c0-11.046875 6.054688-20 13.523438-20h183.945312c7.46875 0 13.523438 8.953125 13.523438 20zm0 0" fill="#4dbaf6"/><path d="m10.011719 63.992188h312v366.007812h-312zm0 0" fill="#fff"/><path d="m201.222656 145.808594-44.6875 44.6875c-44.128906 44.128906-44.128906 115.679687 0 159.808594 12.984375 12.984374 28.347656 22.144531 44.6875 27.488281 16.335938-5.34375 31.699219-14.503907 44.6875-27.488281 44.128906-44.128907 44.128906-115.679688 0-159.808594zm0 0" fill="#4dbaf6"/><path d="m226.4375 314.554688c0 11.046874-8.953125 20-20 20s-20-8.953126-20-20c0-11.042969 8.953125-20 20-20s20 8.957031 20 20zm0 0" fill="#fff"/><path d="m145.828125 226.066406c0 11.042969-8.953125 20-20 20-11.042969 0-20-8.957031-20-20 0-11.046875 8.957031-20 20-20 11.046875 0 20 8.953125 20 20zm0 0" fill="#fff"/><path d="m321.996094 157c-2.628906 0-5.210938 1.070312-7.070313 2.929688-1.859375 1.859374-2.929687 4.441406-2.929687 7.070312s1.070312 5.210938 2.929687 7.070312c1.863281 1.859376 4.441407 2.929688 7.070313 2.929688 2.632812 0 5.210937-1.070312 7.070312-2.929688 1.859375-1.859374 2.929688-4.441406 2.929688-7.070312s-1.070313-5.210938-2.929688-7.070312c-1.859375-1.859376-4.429687-2.929688-7.070312-2.929688zm0 0"/><path d="m332 212c0-5.523438-4.476562-10-10-10s-10 4.476562-10 10v208h-216.324219c-5.523437 0-10 4.476562-10 10s4.476563 10 10 10h216.324219v42c0 5.515625-4.484375 10-10 10h-272c-5.515625 0-10-4.484375-10-10v-408.007812h292v47.210937c0 5.523437 4.476562 10 10 10s10-4.476563 10-10v-91.203125c0-16.542969-13.457031-30-30-30h-272c-16.542969 0-30 13.457031-30 30v452c0 16.542969 13.457031 30 30 30h272c16.542969 0 30-13.457031 30-30zm-302-192h272c5.515625 0 10 4.484375 10 10v23.992188h-292v-23.992188c0-5.515625 4.484375-10 10-10zm0 0"/><path d="m45.9375 422.929688c-1.859375 1.859374-2.929688 4.441406-2.929688 7.070312s1.066407 5.210938 2.929688 7.070312c1.859375 1.859376 4.441406 2.929688 7.070312 2.929688 2.628907 0 5.210938-1.070312 7.066407-2.929688 1.863281-1.859374 2.933593-4.441406 2.933593-7.070312s-1.070312-5.210938-2.933593-7.070312c-1.855469-1.859376-4.4375-2.929688-7.066407-2.929688-2.628906 0-5.210937 1.070312-7.070312 2.929688zm0 0"/><path d="m173.058594 473.058594c1.867187-1.859375 2.929687-4.4375 2.929687-7.070313 0-2.628906-1.0625-5.207031-2.929687-7.066406-1.863282-1.863281-4.429688-2.933594-7.070313-2.933594-2.632812 0-5.210937 1.070313-7.070312 2.933594-1.859375 1.859375-2.929688 4.4375-2.929688 7.066406 0 2.632813 1.070313 5.210938 2.929688 7.070313 1.859375 1.863281 4.4375 2.929687 7.070312 2.929687 2.640625 0 5.207031-1.066406 7.070313-2.929687zm0 0"/><path d="m166.007812 393.34375c31.496094 0 62.996094-11.992188 86.972657-35.96875 47.957031-47.960938 47.957031-125.992188 0-173.949219l-79.902344-79.902343c-3.90625-3.90625-10.234375-3.90625-14.140625 0l-79.90625 79.902343c-47.957031 47.957031-47.957031 125.988281 0 173.949219 23.980469 23.976562 55.476562 35.96875 86.976562 35.96875zm-72.832031-195.777344 72.832031-72.832031 72.832032 72.832031c40.160156 40.160156 40.160156 105.503906 0 145.664063-20.082032 20.082031-46.453125 30.121093-72.832032 30.121093-26.375-.003906-52.753906-10.042968-72.832031-30.121093-40.160156-40.160157-40.160156-105.503907 0-145.664063zm0 0"/><path d="m125.351562 336.84375c1.554688.878906 3.242188 1.296875 4.90625 1.296875 3.488282 0 6.878907-1.832031 8.71875-5.085937l58.941407-104.410157c2.714843-4.808593 1.015625-10.910156-3.792969-13.625-4.808594-2.714843-10.910156-1.019531-13.625 3.792969l-58.941406 104.410156c-2.714844 4.808594-1.019532 10.90625 3.792968 13.621094zm0 0"/><path d="m176.4375 314.554688c0 16.542968 13.457031 30 30 30s30-13.457032 30-30c0-16.539063-13.457031-30-30-30s-30 13.460937-30 30zm30-10c5.515625 0 10 4.488281 10 10 0 5.515624-4.484375 10-10 10-5.511719 0-10-4.484376-10-10 0-5.511719 4.488281-10 10-10zm0 0"/><path d="m125.828125 256.066406c16.542969 0 30-13.460937 30-30 0-16.542968-13.457031-30-30-30-16.539063 0-30 13.457032-30 30 0 16.539063 13.460937 30 30 30zm0-40c5.515625 0 10 4.484375 10 10 0 5.511719-4.484375 10-10 10-5.511719 0-10-4.488281-10-10 0-5.515625 4.488281-10 10-10zm0 0"/></svg>